<svg width="1024" height="1024" viewBox="0 0 1024 1024" fill="none" xmlns="http://www.w3.org/2000/svg">
<g clip-path="url(#clip0_39_177)">
<mask id="mask0_39_177" style="mask-type:alpha" maskUnits="userSpaceOnUse" x="0" y="0" width="1024" height="1024">
<circle cx="512" cy="512" r="512" fill="#D9D9D9"/>
</mask>
<g mask="url(#mask0_39_177)">
<rect width="1024" height="1024" fill="url(#paint0_linear_39_177)"/>
<path d="M-135.214 203.301L1494.62 1610.77L-735.544 2271.37L-135.214 203.301Z" fill="#FF77D9" fill-opacity="0.05"/>
<path d="M-542.782 139.402L1256.81 1322.09L-868.039 2268.14L-542.782 139.402Z" fill="#FF77D9" fill-opacity="0.05"/>
<path d="M-526.748 409.421L1435.71 1296.03L-514.993 2562.83L-526.748 409.421Z" fill="#FF77D9" fill-opacity="0.05"/>
<path d="M-656.026 577.933L1399.85 1218.77L-381.924 2713.86L-656.026 577.933Z" fill="#FF77D9" fill-opacity="0.05"/>
<path d="M1528.9 418.313L1460.78 2570.67L-456.092 1253.25L1528.9 418.313Z" fill="#FF77D9" fill-opacity="0.05"/>
<path d="M-752.012 794.23L1396.66 937.426L13.1383 2807.15L-752.012 794.23Z" fill="#FF77D9" fill-opacity="0.05"/>
<path d="M-559.608 613.972L1576.32 888.074L81.2286 2669.85L-559.608 613.972Z" fill="#FF77D9" fill-opacity="0.05"/>
<path d="M-718.785 402.683L1399.87 788.195L-186.422 2489.28L-718.785 402.683Z" fill="#FF77D9" fill-opacity="0.05"/>
<path d="M973.183 -1402.55L1446.14 698.313L-739.531 -97.2058L973.183 -1402.55Z" fill="#7CA1FF" fill-opacity="0.05"/>
<path d="M1075.94 -1459.28L1176.9 691.79L-837.425 -471.181L1075.94 -1459.28Z" fill="#7CA1FF" fill-opacity="0.05"/>
<path d="M1405.79 -1433.23L1131.69 702.694L-650.088 -792.392L1405.79 -1433.23Z" fill="#7CA1FF" fill-opacity="0.05"/>
<path d="M2098.71 -1002.3L1457.87 1053.58L-37.2136 -728.198L2098.71 -1002.3Z" fill="#7CA1FF" fill-opacity="0.05"/>
<path d="M664.593 -1440.13L1495.18 546.68L-795.43 142.784L664.593 -1440.13Z" fill="#7CA1FF" fill-opacity="0.05"/>
<path d="M385.544 -1548.84L1386.13 358.022L-930.962 155.302L385.544 -1548.84Z" fill="#7CA1FF" fill-opacity="0.05"/>
<path d="M314.097 -1684.4L1380.62 186.381L-942.134 64.6501L314.097 -1684.4Z" fill="#7CA1FF" fill-opacity="0.05"/>
</g>
</g>
<defs>
<linearGradient id="paint0_linear_39_177" x1="218" y1="-292.5" x2="832" y2="1268" gradientUnits="userSpaceOnUse">
<stop stop-color="#23003E"/>
<stop offset="1" stop-color="#64007D"/>
</linearGradient>
<clipPath id="clip0_39_177">
<rect width="1024" height="1024" fill="white"/>
</clipPath>
</defs>
</svg>
